<svg xmlns="http://www.w3.org/2000/svg" viewBox="0 0 512.03 505.95"><defs><style>.cls-1{fill:#e9471e;}</style></defs><g id="Layer_2" data-name="Layer 2"><g id="Var1"><polygon class="cls-1" points="480 128 512 128 512 0 448 0 448 32 480 32 480 128"/><polygon class="cls-1" points="32 32 352 32 352 0 0 0 0 368 240 368 240 336 32 336 32 32"/><path class="cls-1" d="M498.22,220.91c-.82-.88-1.66-1.72-2.54-2.54a19.45,19.45,0,0,1-6.08-14.77,51.56,51.56,0,0,0-15-38.1,52.45,52.45,0,0,0-38.1-15,19.64,19.64,0,0,1-14.85-6.16,51.44,51.44,0,0,0-72.7-2.49c-.86.8-1.69,1.63-2.5,2.49a18.55,18.55,0,0,1-14.83,6.16,51.44,51.44,0,0,0-53.14,49.66c0,1.15,0,2.31,0,3.46a19.44,19.44,0,0,1-6.14,14.85,51.41,51.41,0,0,0-2.54,72.66c.81.88,1.66,1.72,2.54,2.54a19.42,19.42,0,0,1,6.14,14.83,51.53,51.53,0,0,0,15,38.1A48.85,48.85,0,0,0,304,354.34V506l80-40,80,40V354.32a50,50,0,0,0,10.51-7.82,51.57,51.57,0,0,0,15-38.08,19.44,19.44,0,0,1,6.14-14.85A51.41,51.41,0,0,0,498.22,220.91ZM432,454.11l-48-24-48,24V361.94a19.42,19.42,0,0,1,10.43,5.76,51.45,51.45,0,0,0,72.71,2.49q1.29-1.2,2.49-2.49A18.51,18.51,0,0,1,432,362.34v91.77Zm42.8-184.85q-.45.48-.93.93h0A51.37,51.37,0,0,0,457.6,309.5a19.2,19.2,0,0,1-5.68,14.4,18.38,18.38,0,0,1-14.4,5.68,51.24,51.24,0,0,0-39.3,16.29,19.86,19.86,0,0,1-28.1.28l-.28-.28a51.39,51.39,0,0,0-37.57-16.32h-1.74a19.42,19.42,0,0,1-20.13-18.69c0-.46,0-.92,0-1.37a51.38,51.38,0,0,0-16.27-39.3,19.41,19.41,0,0,1-.93-27.45q.45-.48.93-.93A51.38,51.38,0,0,0,310.4,202.5a19.2,19.2,0,0,1,5.68-14.4,19,19,0,0,1,14.4-5.68,52.82,52.82,0,0,0,39.3-16.29,19.86,19.86,0,0,1,28.1-.28l.28.28A52.55,52.55,0,0,0,437.5,182.4a19.42,19.42,0,0,1,20.1,18.73q0,.69,0,1.38a51.39,51.39,0,0,0,16.27,39.3A19.41,19.41,0,0,1,474.8,269.26Z"/><path class="cls-1" d="M384,192a64,64,0,1,0,64,64A64,64,0,0,0,384,192Zm0,96a32,32,0,1,1,32-32A32,32,0,0,1,384,288Z"/><rect class="cls-1" x="160" y="64" width="192" height="32"/><rect class="cls-1" x="64" y="144" width="192" height="32"/><rect class="cls-1" x="64" y="208" width="160" height="32"/><rect class="cls-1" x="192" y="272" width="32" height="32"/><rect class="cls-1" x="64" y="272" width="96" height="32"/><rect class="cls-1" x="384" width="32" height="32"/></g></g></svg>