<svg xmlns="http://www.w3.org/2000/svg" viewBox="0 0 148.95 148.95"><defs><style>.cls-1{fill:#e9471e;}</style></defs><g id="Layer_2" data-name="Layer 2"><g id="Var1"><g id="instagram"><path class="cls-1" d="M74.47,13.42c19.89,0,22.25.07,30.1.43,7.26.33,11.2,1.55,13.83,2.57A23.08,23.08,0,0,1,127,22a23,23,0,0,1,5.57,8.56c1,2.63,2.23,6.57,2.57,13.83.35,7.85.43,10.21.43,30.09s-.08,22.25-.43,30.1c-.34,7.26-1.55,11.2-2.57,13.83a24.67,24.67,0,0,1-14.13,14.13c-2.63,1-6.57,2.23-13.83,2.57-7.85.35-10.21.43-30.1.43s-22.24-.08-30.09-.43c-7.26-.34-11.2-1.55-13.83-2.57A23,23,0,0,1,22,127a23.08,23.08,0,0,1-5.57-8.56c-1-2.63-2.24-6.57-2.57-13.83-.36-7.85-.43-10.21-.43-30.1s.07-22.24.43-30.09c.33-7.26,1.55-11.2,2.57-13.83A23,23,0,0,1,22,22a23,23,0,0,1,8.56-5.57c2.63-1,6.57-2.24,13.83-2.57,7.85-.36,10.21-.43,30.09-.43M74.47,0C54.25,0,51.71.09,43.77.45A54.66,54.66,0,0,0,25.69,3.91,36.44,36.44,0,0,0,12.5,12.5,36.44,36.44,0,0,0,3.91,25.69,54.66,54.66,0,0,0,.45,43.77C.09,51.71,0,54.25,0,74.47s.09,22.77.45,30.71a54.66,54.66,0,0,0,3.46,18.08,36.44,36.44,0,0,0,8.59,13.19A36.44,36.44,0,0,0,25.69,145a54.66,54.66,0,0,0,18.08,3.46c7.94.36,10.48.45,30.7.45s22.77-.09,30.71-.45A54.66,54.66,0,0,0,123.26,145,38.09,38.09,0,0,0,145,123.26a54.66,54.66,0,0,0,3.46-18.08c.36-7.94.45-10.48.45-30.71s-.09-22.76-.45-30.7A54.66,54.66,0,0,0,145,25.69a36.44,36.44,0,0,0-8.59-13.19,36.44,36.44,0,0,0-13.19-8.59A54.66,54.66,0,0,0,105.18.45C97.24.09,94.7,0,74.47,0Z"/><path class="cls-1" d="M74.47,36.23a38.25,38.25,0,1,0,38.25,38.24A38.24,38.24,0,0,0,74.47,36.23Zm0,63.07A24.83,24.83,0,1,1,99.3,74.47,24.83,24.83,0,0,1,74.47,99.3Z"/><circle class="cls-1" cx="114.23" cy="34.72" r="8.94"/></g></g></g></svg>