<svg xmlns="http://www.w3.org/2000/svg" viewBox="0 0 191.57 109.29"><defs><style>.cls-1{fill:#e9471e;fill-rule:evenodd;}</style></defs><g id="Layer_2" data-name="Layer 2"><g id="Var1"><path id="vk_alt" class="cls-1" d="M93.73,108.83h11.45s3.46-.38,5.22-2.29c1.63-1.74,1.58-5,1.58-5s-.23-15.37,6.9-17.63,16.06,14.85,25.63,21.42c7.23,5,12.73,3.88,12.73,3.88l25.58-.36s13.38-.83,7-11.35c-.52-.86-3.7-7.78-19-22-16-14.88-13.89-12.48,5.44-38.23C188,21.55,192.74,12,191.27,7.88,189.87,4,181.21,5,181.21,5l-28.8.18a6.53,6.53,0,0,0-3.72.66,8,8,0,0,0-2.54,3.09,166.74,166.74,0,0,1-10.64,22.46c-12.83,21.78-18,22.93-20,21.58-4.88-3.16-3.66-12.67-3.66-19.42,0-21.11,3.2-29.91-6.24-32.19C102.43.6,100.13.11,92.12,0c-10.28-.1-19,0-23.9,2.45C64.94,4.07,62.41,7.65,64,7.86c1.91.25,6.22,1.16,8.5,4.27,3,4,2.85,13,2.85,13S77,50,71.34,53.1c-3.88,2.11-9.21-2.21-20.64-22A184.09,184.09,0,0,1,40.41,9.82,8.56,8.56,0,0,0,38,6.61a11.82,11.82,0,0,0-4.42-1.79L6.24,5S2.13,5.12.63,6.91C-.72,8.5.52,11.78.52,11.78S22,61.92,46.21,87.18c22.25,23.17,47.52,21.65,47.52,21.65Z"/></g></g></svg>