<svg xmlns="http://www.w3.org/2000/svg" viewBox="0 0 153.43 154.63"><defs><style>.cls-1{fill:#e9471e;fill-rule:evenodd;}</style></defs><g id="Layer_2" data-name="Layer 2"><g id="Var1"><g id="whatsapp"><path class="cls-1" d="M78.11,0A75.35,75.35,0,0,0,13.59,114.22L0,154.63l41.7-13.35A75.33,75.33,0,1,0,78.11,0Zm0,138a62.4,62.4,0,0,1-34.5-10.36l-24.1,7.71,7.84-23.28A62.68,62.68,0,1,1,78.11,138Zm35.31-45.58c-1.89-1-11.16-6-12.9-6.75s-3-1.07-4.36.8S91,92.56,89.79,93.8s-2.3,1.36-4.19.32A52.43,52.43,0,0,1,70.5,84,58.29,58.29,0,0,1,60.3,70.29c-1-2,0-3,1-3.89s2-2.18,3-3.26a13.36,13.36,0,0,0,2-3.14,3.54,3.54,0,0,0,0-3.37c-.44-1-3.93-10.59-5.39-14.49s-3.08-3.33-4.21-3.38-2.39-.25-3.68-.29a7,7,0,0,0-5.21,2.21,21.53,21.53,0,0,0-7.33,15.78c-.36,9.46,6.19,18.86,7.1,20.18s12.5,21.83,31.76,30.26,19.36,5.86,22.89,5.67,11.55-4.23,13.32-8.65,1.91-8.28,1.46-9.1S115.31,93.47,113.42,92.44Z"/></g></g></g></svg>